<svg xmlns="http://www.w3.org/2000/svg" width="1024" height="1024" viewBox="0 0 1024 1024">
  <rect width="1024" height="1024" rx="0" fill="#0B1A24"/>
  <g transform="translate(204.8,204.8) scale(3.072)"><g stroke="#152B47" stroke-width="7" stroke-linejoin="round" stroke-linecap="round"><path d="M44,76 C39,50 46,20 59,8 C74,18 90,42 98,60 Z" fill="#F4B044"/><path d="M156,76 C161,50 154,20 141,8 C126,18 110,42 102,60 Z" fill="#F4B044"/><path d="M56,66 C52,48 57,28 63,22 C72,32 82,48 88,58 Z" fill="#152B47" stroke="none"/><path d="M144,66 C148,48 143,28 137,22 C128,32 118,48 112,58 Z" fill="#152B47" stroke="none"/><path d="M100,46 C60,46 28,78 28,116 C28,156 58,185 100,193 C142,185 172,156 172,116 C172,78 140,46 100,46 Z" fill="#F4B044"/><path d="M34,130 C34,121 44,118 60,118 L140,118 C156,118 166,121 166,130 C166,160 140,185 100,193 C60,185 34,160 34,130 Z" fill="#FFFFFF" stroke="none"/><path d="M40,92 L52,92" fill="none" stroke="#1E3250" stroke-width="10.5"/><path d="M148,92 L160,92" fill="none" stroke="#1E3250" stroke-width="10.5"/><path d="M97,90 L103,90" fill="none" stroke="#1E3250" stroke-width="12.6"/><rect x="52" y="82" width="46" height="38" rx="13" fill="#A8D9F2" stroke="#1E3250" stroke-width="10.5"/><rect x="102" y="82" width="46" height="38" rx="13" fill="#A8D9F2" stroke="#1E3250" stroke-width="10.5"/><circle cx="76" cy="102" r="9" fill="#152B47" stroke="none"/><circle cx="124" cy="102" r="9" fill="#152B47" stroke="none"/><circle cx="83" cy="95" r="5" fill="#FFFFFF" stroke="none"/><circle cx="131" cy="95" r="5" fill="#FFFFFF" stroke="none"/><path d="M88,132 C88,129 112,129 112,132 C112,140 105,150 100,150 C95,150 88,140 88,132 Z" fill="#152B47" stroke="none"/><path d="M100,150 L100,158" fill="none" stroke="#152B47" stroke-width="5.6"/><path d="M100,158 C100,167 88,169 81,163" fill="none" stroke="#152B47" stroke-width="5.6"/><path d="M100,158 C100,167 112,169 119,163" fill="none" stroke="#152B47" stroke-width="5.6"/></g></g>
</svg>